# xmcd
#
# Track frame offsets: 
#        150
#        24005
#        49478
#        68243
#        87413
#        101554
#        121742
#        139557
#        157374
#        177908
#        199569
#        220042
#        238176
#        258944
#        278340
#        294385
#
# Disc length: 4204 seconds
#
# Revision: 0
# Processed by: cddbd v1.5.2PL0 Copyright (c) Steve Scherf et al.
# Submitted via: ExactAudioCopy v1.0b3
#
DISCID=df106a10
DTITLE=群星 - 试音宝典07号
DYEAR=2010
DGENRE=stereo
TTITLE0=酒干倘卖无
TTITLE1=你把温柔给了谁
TTITLE2=花间梦
TTITLE3=庭院深深
TTITLE4=草原上升起不落的太阳
TTITLE5=庸人自扰
TTITLE6=缘来缘去
TTITLE7=三月里的小雨
TTITLE8=外面的世界
TTITLE9=把悲伤留给自己
TTITLE10=彩云追月
TTITLE11=翠湖寒
TTITLE12=每一句说话
TTITLE13=红豆
TTITLE14=月圆花好
TTITLE15=传奇
EXTD=
EXTT0=
EXTT1=
EXTT2=
EXTT3=
EXTT4=
EXTT5=
EXTT6=
EXTT7=
EXTT8=
EXTT9=
EXTT10=
EXTT11=
EXTT12=
EXTT13=
EXTT14=
EXTT15=
PLAYORDER=
